# xmcd
#
# Track frame offsets:
#	150
#	18772
#	37592
#	54205
#	69247
#	83632
#	104622
#	120240
#	138085
#	156185
#	172792
#
# Disc length: 2707 seconds
#
# Revision: 4
# Processed by: cddbd v1.5.2PL0 Copyright (c) Steve Scherf et al.
# Submitted via: audiograbber 1.83.01
#
DISCID=6d0a910b
DTITLE=Malia and Boris Blank - Convergence
DYEAR=2014
DGENRE=Jazz
TTITLE0=Celestial Echo
TTITLE1=Embraceable Moon
TTITLE2=I Feel It Like You
TTITLE3=Touching Ghosts
TTITLE4=Claire Cadillac
TTITLE5=Raising Venus
TTITLE6=Fever
TTITLE7=Smouldering Ashes
TTITLE8=Magnetic Lies
TTITLE9=Tears Run Dry
TTITLE10=Turner's Ship
EXTD=
EXTT0=
EXTT1=
EXTT2=
EXTT3=
EXTT4=
EXTT5=
EXTT6=
EXTT7=
EXTT8=
EXTT9=
EXTT10=
PLAYORDER=
